<svg id="Layer_1" data-name="Layer 1" xmlns="http://www.w3.org/2000/svg" viewBox="0 0 656.6 161.91"><title>batcave</title><path d="M135.08,171.56a58.48,58.48,0,0,1-4.59,6.72c-1.66,1.85-3.29,3.83-5.7,5a7.49,7.49,0,0,0-3.74,4.13c-.6,1.53-1.34,3-2,4.56a9.36,9.36,0,0,0-5.8,2.08c-1.93,1.38-4.11,2.41-6.15,3.64-.82.5-1.54,1.17-2.35,1.68a3.47,3.47,0,0,1-1.17.24l.06.06-.35-.93L98,201l-.22-.33L97,202.05l-4.87.85c-.06,0-.16-.14-.2-.12a17.76,17.76,0,0,1-3.31,1.29c-1.23.22-2.5.39-3.77.49a6.5,6.5,0,0,0-3.37,1.28,7,7,0,0,1-2.76,1.41,1.54,1.54,0,0,1-2-.7l-3.42-.32-1.9,1.68,0,.75.06-.06L70,208.1l-2.48.54,0-.63h.37l-.07-.26-.22.31c0,.06-.14.13-.13.18a1.49,1.49,0,0,0,.14.33L65,209.69v1.25c-1.22.54-2.5,1.07-3.74,1.68-1,.48-1.91,1.07-3.31,1.86l-1.4-.37a3.54,3.54,0,0,0-.47.78c-.61,2-1.22,2.46-3.15,2.24-.69-.08-1.27-.56-2.12-.25-.34.13-1.06-.73-1.48-1.29-1.86-.43-3.51-1.14-4.09-3.25-2.22-.26-4.44-.47-6.64-.8a6.51,6.51,0,0,1-2.27-.84,39.83,39.83,0,0,1-6.92-5.5A13.15,13.15,0,0,0,27.61,204c-.42-1.61.08-3,.41-4.49,1.87-8.09,3.69-16.2,5.56-24.29.62-2.67,1.36-5.31,2-8,.18-.72.31-1.46.47-2.19a16,16,0,0,1,.74-3.14c1.87-4.13,2.6-8.57,3.64-12.93,1.33-5.57,2.71-11.14,3.81-16.76,1.62-8.24,4.21-16.23,6-24.42.74-3.38,2.1-6.62,3.15-9.93a31.21,31.21,0,0,0,1.3-4.54c.56-3.59,2.45-6.69,3.54-10.08.28-.85.51-1.72.78-2.6L57.55,79.5c0-.25-.1-.57,0-.73a5.53,5.53,0,0,1,1.38-1.67,10.76,10.76,0,0,0,3.59-4.06c2.85-4.83,7-7.48,12.69-7.33A21.47,21.47,0,0,1,83.06,67a6.67,6.67,0,0,0,3.19.06c5-.64,10.05-1.35,15.08-2a43.12,43.12,0,0,1,13.16.6,84.53,84.53,0,0,1,9,1.88A29.35,29.35,0,0,1,138.35,77a17.37,17.37,0,0,1,3.16,6.69c.91,3.26,2.07,6.44,2.06,9.93a20.18,20.18,0,0,1-5.52,14,65.68,65.68,0,0,1-16,13.08c-.7.4-1.35.91-2.31,1.57,1.82.8,3.36,1.39,4.81,2.14A28.08,28.08,0,0,1,133,131a33,33,0,0,1,3.73,5.24,28,28,0,0,1,3.49,13.56c0,1.48.21,3,.28,4.45A24.27,24.27,0,0,1,137.7,166c-.64,1.34-1.12,2.75-1.67,4.13l.06,0-.5.49-.07.09-.5,1Zm-74.27,25a5.52,5.52,0,0,0,1.46-.13c2.61-1,5.16-2.19,8.07-1.86a2,2,0,0,0,.73-.16,75.44,75.44,0,0,0,18.67-8.15,43,43,0,0,0,14.86-14.85c1.54-2.65,2.78-5.48,4.36-8.11,2-3.29,3.45-6.64,2.77-10.59a3.36,3.36,0,0,1,0-.75c.41-7.18-3.49-11.28-8.43-14.42a1.77,1.77,0,0,0-.7-.27,54.46,54.46,0,0,0-7.17-.83c-4.81,0-9.62.33-14.43.6a24.69,24.69,0,0,0-9,2.29c-.4,2-.72,4-1.19,5.9-1.65,6.86-2.42,13.9-4.69,20.64-1,3.11-1.1,6.54-1.72,9.8C63.16,182.56,61.42,189.38,60.82,196.56Zm22.37-103c-1.19,3.3-2.43,6.65-3.61,10a13.44,13.44,0,0,0-.47,2.44c-.16,1-.26,2.1-.4,3.15-.49,3.59-1,7.18-1.46,10.55,2.74-.1,5.3-.33,7.86-.25,3.51.12,6.72-1,10-2a10.65,10.65,0,0,0,3.35-2.06c3.1-2.52,6.07-5.19,9.19-7.68a24,24,0,0,0,6.56-8.66c1-2,1.76-4.31,1.16-6.53-.84-3.1-2-6.2-4.85-7.62A49.06,49.06,0,0,0,83.18,93.61ZM71.1,206c-.23.25-.48.39-.48.54s.21.33.33.5c.17-.13.42-.23.47-.4S71.26,206.28,71.1,206Zm-18.83,9.38a2.84,2.84,0,0,0-.45-.17s-.11.11-.16.17c.11.08.21.22.32.23S52.17,215.45,52.27,215.36Zm-4.92-1.77.39-.2s0-.16-.08-.16a2.59,2.59,0,0,0-.39,0Z" transform="translate(-27.45 -60.78)"/><path d="M172,120.59a38.79,38.79,0,0,1-4.84,8.32L166,128l.07.07c.24-1.17,1.61-1.89,1.42-3.4-2.2,2.2-2.2,2.2-3,4.83-.06,1.29,2,1,1.68,2.57,2.07-1,2.84-2.94,4.42-4.26a2.41,2.41,0,0,1,1.3-3.61,10,10,0,0,0,2-1.8l-.39-1,3.59-4.37-1.64,3.81a10.49,10.49,0,0,0,3.49-5L177,117.16c.35-.64.73-1.27,1-1.92s.69-1.62,1-2.43c.27-.6.55-1.19.86-1.76q2.29-4.22,4.6-8.44c.56-.48,1.15-.95.66-1.92l-.6,2a19.22,19.22,0,0,0-1.89,1.71c-1.21,1.42-2.34,2.9-3.7,4.59-.92-1.64.32-2.57.45-3.71l-1-.24.06.06,0-1,.2-.31-.16.35-2-.57.06.06c.88-1.63,1.78-3.26,2.64-4.91a5.31,5.31,0,0,0,.3-1.12l.2-.3-.15.35-.41-1.69-.67.1.06.05a17.59,17.59,0,0,1,1-2.24c2-3.25,4.08-6.46,6.09-9.7a19.55,19.55,0,0,0,1.79-3.28c1.47-3.87,3.86-7.17,6.23-10.48a49.58,49.58,0,0,1,4-4.32c2-.37,4.18-2.21,6.8-1.21.25-.15.47-.2.53-.32.92-1.9,2.92-.45,4.27-1.41s2.78-.52,4.27.54,3.33,1.38,5.24,2.12l.41-2.82a3.37,3.37,0,0,1,2,1.59c1,1.34,1.55,3.19,3.55,3.4A39.48,39.48,0,0,0,226.1,72a28.09,28.09,0,0,1,2.39,7.77,31.35,31.35,0,0,0,1.85,5.36,53.46,53.46,0,0,1,2.14,6.36c.51,2.39,1.23,4.8.79,7.32a11.85,11.85,0,0,0,0,2c0,5.32-.05,10.64,0,16,0,2,.34,4,.34,6,0,2.89-.18,5.78-.22,8.67-.06,4.9-.31,9.82,0,14.71a91.87,91.87,0,0,1-.5,13.7c-.05.58-.2,1.15-.2,1.73,0,3.56-.14,7.13.08,10.68.37,5.86-.37,11.63-1,17.42-.24,2.22-.09,4.49-.32,6.71a10.57,10.57,0,0,1-1,4.05c-2,3.56-5,5.82-9.26,6-.22,0-.51-.06-.64.05-1.18,1.07-2.23.53-3.26-.36l-.91,1.24-.51-.61-.72,1.26-.82-2.64c-1,.4-2,1.62-2.94-.21L210.07,207l-1.22-.11L207,208.42l-2.21-3.14-1.11,1.62-.84-2.25c-.78-.45-1.34-.27-1.64.81-.25-.33-.57-.56-.59-.81-.18-2.48-.69-5-.4-7.44.92-7.47.66-15,1-22.45.11-2.64.53-5.27-.06-7.93a8,8,0,0,1,.38-2.6,6.55,6.55,0,0,0-2.86.67c-4,1.28-7.89,2.67-12.08,2.93-2.82.18-5.65.21-8.47.36-4.05.22-8.1.49-12.15.73-.95,2.23-2,4.33-2.73,6.51A42.72,42.72,0,0,1,158,185.86a5.64,5.64,0,0,0-.47.88q-3,6.56-6.06,13.12a7.75,7.75,0,0,0-.44,1.42c-1.23,5.12-4.8,7.74-9.68,8.76a6.55,6.55,0,0,1-3.26-.67,3.5,3.5,0,0,1-4.26-1.62,17.07,17.07,0,0,0-2.38-2.31L130.24,207c-.27-.07-.5-.05-.57-.15-.62-.95-1.73-1.41-2.21-2.58-.36-.89-1.64-1-2.92-.45l.34-3.1-.28-.08-.85,1.92-.53-1.32-1.64,2.25c-.59-2.23,1.46-7.45,5.06-13.07l1,.62c-.73,1.38-1.49,2.74-2.18,4.14a6.36,6.36,0,0,0-.34,1.4l-.16.14.1-.19.9.39c.69-1.58,1.38-3.12,2-4.68.18-.44.3-1-.41-1.16.63-.63,1.22-1.31,1.9-1.87.4-.32.91-.35,1.12.33l-.08.16v-.22c1-1.46,2.25-2.81,2.78-4.41a13.94,13.94,0,0,1,2.29-4.79l-.68-1.35c.55-1.18,1.17-2.68,1.94-4.1a4,4,0,0,0,.69-2.8l.23-.11-.16.18-1.65,2.6-1.32-.21.5-3-.06.07.5-1,.07-.09.5-.49-.06,0,.55,1-.12.12.06-.17c1.2-1.12,2.38-2.27,3.61-3.36a10.31,10.31,0,0,1,1.55-.93l.17-1.7H141l.05,0c0-.41-.07-.89.12-1.2,1.81-2.94,3-6.25,5.47-8.82a35.81,35.81,0,0,0,2.47-3.66c1.11-1.5,2.31-2.94,3.47-4.4l0,.23-.1-.16c.49-.74,1-1.44,1.45-2.22.57-1.08,1-2.21,1.54-3.31l.36-.12-.17-.2-.12.38c-1.51.07-1.76,1.61-3.11,2.65.36-.95.55-1.49.77-2,.3-.74.47-1.54.71-2.25a9.11,9.11,0,0,1,2.59-4.29,9.46,9.46,0,0,0,3.31-3.52l1.89-.28-.07-1.6,1.84-2.73,1-1.5c1.44,0,1.36-1.24,1.84-2-1.26.78-1.26.78-1.8,2.07-.89.15-.91.86-1,1.54l-1.25-.76,4.93-5.2.32-2.76c.73-1.44,1.9-1.53,3-1.79l-.06-.06.47,1.2-1.06,2.28,2.21.11Zm-22.47,33-.1.16,0-.23.23-.14Zm-15,31.43c1.13-1,1.13-1,1.67-2.93-.91,1.16-1.66,1.83-1.62,3l-.2.32Zm66.11-41.54-2,1.63L196.76,148l4.83-2,.32-2.23-1.36-.19,1.56-1.76c0-2.56,0-5.29,0-8,0-3.4-.43-6.85,0-10.19.41-3.06.27-6.1.52-9.14.18-2.15.53-4.29.73-6.43.16-1.69.38-3.43-1.1-4.89-.29.35-.51.59-.7.85-2.19,3.12-4.24,6.36-6.61,9.34a44.09,44.09,0,0,0-6.34,10.33c-.45,1.07-.94,2.13-1.45,3.17s-.93,1.76-1.42,2.63c-2.55,4.55-5.11,9.09-7.64,13.65a5.27,5.27,0,0,0-.29,1.3,78.33,78.33,0,0,0,16.46-5c1-.47,2-1.17,3.29-.79l0,0c-.34,1.17-1.45,1.2-2.33,1.53-1.39.53-2.8,1-4.2,1.51-.09,0-.13.21-.18.3l1.39,1-2.21,1c.8,1,1.68.18,2.53.15l-.05-.08-1.93,2.11a4.31,4.31,0,0,0,3-.55A23.57,23.57,0,0,1,200.64,143.53Zm-62.5,48.81v-3C137.36,190.43,136.56,191.1,138.14,192.35Zm52.77-42.07-.16-.39-.88.43.11.27Zm-52,37.4c-.17.21-.25.26-.25.31a2.2,2.2,0,0,0,.09.38Zm40.76-72.41.16,0,.06-.55-.16,0C179.75,114.91,179.73,115.09,179.71,115.27Zm-47.93,79.18.08-.12-.13,0Zm-2.35,1.91-.13-.18c-.05.05-.14.11-.14.16s.08.12.12.18Z" transform="translate(-27.45 -60.78)"/><path d="M440.62,102.67a19.22,19.22,0,0,0-1.89,1.71c-1.21,1.42-2.34,2.9-3.64,4.52-.45-1.51-.45-1.51.34-3.65l-.93-.22.06.06,0-1,.2-.31-.16.35-2-.57.06.06c.88-1.63,1.78-3.26,2.64-4.91a5.31,5.31,0,0,0,.3-1.12l.2-.3-.15.35-.41-1.69-.67.1.06.05a17.59,17.59,0,0,1,1-2.24c2-3.25,4.08-6.46,6.09-9.7a19.54,19.54,0,0,0,1.79-3.28c1.47-3.87,3.86-7.17,6.23-10.48a49.5,49.5,0,0,1,4-4.32c2-.41,4.2-2.17,6.86-1.25.2-.12.41-.17.47-.29.92-1.9,2.92-.45,4.27-1.41s2.83-.61,4.28.53A8.65,8.65,0,0,0,472,64.89c.84.28,1.72.46,2.77.73l.38-2.67a3.37,3.37,0,0,1,2,1.59c1,1.34,1.55,3.19,3.55,3.4A39.48,39.48,0,0,0,482.1,72a28.09,28.09,0,0,1,2.39,7.77,31.35,31.35,0,0,0,1.85,5.36,53.47,53.47,0,0,1,2.14,6.36c.51,2.39,1.23,4.8.79,7.32a11.84,11.84,0,0,0,0,2c0,5.32,0,10.64,0,16,0,2,.34,4,.34,6,0,2.89-.18,5.78-.22,8.67-.06,4.9-.31,9.82,0,14.71a91.85,91.85,0,0,1-.5,13.7c-.05.58-.2,1.15-.2,1.73,0,3.56-.14,7.13.08,10.68.37,5.86-.37,11.63-1,17.42-.24,2.22-.09,4.49-.32,6.71a10.57,10.57,0,0,1-1,4.05c-2,3.56-5,5.82-9.26,6-.22,0-.51-.06-.64.05-1.18,1.07-2.23.53-3.26-.36l-.91,1.24-.51-.61-.72,1.26-.83-2.66c-.95.62-2,1.16-3,0L466.07,207l-1.22-.11L463,208.42l-2.21-3.14-1.11,1.62-.84-2.25c-.78-.45-1.34-.27-1.64.81-.25-.33-.57-.56-.59-.81-.18-2.48-.69-5-.4-7.44.92-7.47.66-15,1-22.45.11-2.64.53-5.27-.06-7.93a8,8,0,0,1,.38-2.6,6.55,6.55,0,0,0-2.86.67c-4,1.28-7.89,2.67-12.08,2.93-2.82.18-5.65.21-8.47.36-4.05.22-8.1.49-12.15.73-.95,2.23-2,4.33-2.73,6.51A42.72,42.72,0,0,1,414,185.86a5.65,5.65,0,0,0-.47.88q-3,6.56-6.06,13.12a7.75,7.75,0,0,0-.44,1.42c-1.23,5.12-4.8,7.74-9.68,8.76a6.54,6.54,0,0,1-3.26-.67,3.5,3.5,0,0,1-4.26-1.62,17.09,17.09,0,0,0-2.38-2.3L386.24,207c-.27-.07-.5-.05-.57-.15-.62-.95-1.73-1.41-2.21-2.58-.36-.89-1.64-1-2.92-.45l.34-3.1-.28-.08-.85,1.92-.53-1.32-1.64,2.25c-.59-2.23,1.46-7.45,5.06-13.07l1,.62c-.73,1.38-1.49,2.74-2.18,4.14a6.37,6.37,0,0,0-.34,1.4l-.16.14.1-.19.9.39c.69-1.58,1.38-3.12,2-4.68.18-.44.3-1-.41-1.16.63-.63,1.22-1.31,1.9-1.87.4-.32.91-.35,1.12.33l-.08.16v-.22a24.56,24.56,0,0,0,2.79-4.41c.62-1.64,1-3.37,2.27-4.8l-.68-1.35c.55-1.18,1.17-2.68,1.94-4.1a4,4,0,0,0,.69-2.8l.23-.11-.16.18-1.65,2.61-1.53-.25,1.79-4.78.43,1.41-.12.12.06-.17c1.2-1.12,2.38-2.27,3.61-3.36a10.31,10.31,0,0,1,1.55-.93l.17-1.7H397l.05,0c0-.41-.07-.89.12-1.2,1.81-2.94,3-6.25,5.47-8.82a35.81,35.81,0,0,0,2.47-3.66c1.11-1.5,2.31-2.94,3.47-4.4l0,.23-.1-.16c.49-.74,1-1.44,1.45-2.22.57-1.08,1-2.21,1.54-3.31l.36-.12-.17-.2-.12.38c-1.51.07-1.76,1.61-3.11,2.65.36-.95.55-1.49.77-2,.3-.74.47-1.54.71-2.25a9.41,9.41,0,0,1,2.59-4.29c1.29-1,2.7-1.83,3.25-3.51l2-.29-.07-1.6,1.84-2.73,1-1.5c1.44,0,1.36-1.24,1.82-2-.95.41-1.78.92-1.78,2.08-.89.15-.91.86-1,1.54l-1.25-.76,4.93-5.2.32-2.76c.73-1.44,1.9-1.53,3-1.79l-.06-.06.47,1.2-1.05,2.28,2.22.11-.07-.06a48.78,48.78,0,0,1-4.79,8.36L422,128l.07.07c.26-1.16,1.56-1.91,1.47-3.57a9.2,9.2,0,0,0-3,4.76c-.07,1.54,2,1.2,1.67,2.82,2.07-1,2.84-2.94,4.42-4.26a2.41,2.41,0,0,1,1.3-3.61,10,10,0,0,0,2-1.8l-.39-1,3.59-4.37-1.64,3.81a10.19,10.19,0,0,0,3.49-5.05L433,117.16c.35-.64.73-1.27,1-1.92s.69-1.62,1-2.43c.27-.6.55-1.19.86-1.76q2.29-4.22,4.6-8.44c.56-.48,1.15-.95.66-1.93Zm-35.06,51-.1.16,0-.23.23-.14Zm-15,31.43c1.13-1,1.13-1,1.67-2.93-.91,1.16-1.66,1.83-1.62,3l-.2.32Zm58-41-.05-.08-1.93,2.11a4.31,4.31,0,0,0,3-.55,23.57,23.57,0,0,1,7.09-2l-2,1.63L452.76,148l4.83-2,.32-2.23-1.36-.19,1.56-1.76c0-2.56,0-5.29,0-8,0-3.4-.43-6.85,0-10.19.41-3.06.27-6.1.52-9.14.17-2.15.53-4.29.73-6.43.16-1.69.38-3.43-1.1-4.89-.29.35-.51.59-.7.85-2.19,3.12-4.24,6.36-6.61,9.34a44.09,44.09,0,0,0-6.34,10.33c-.45,1.07-.94,2.13-1.45,3.17s-.93,1.76-1.42,2.63c-2.55,4.55-5.11,9.09-7.64,13.65a5.27,5.27,0,0,0-.29,1.3,78.33,78.33,0,0,0,16.46-5c1-.47,2-1.17,3.29-.79l0,0c-.34,1.17-1.45,1.2-2.33,1.53-1.39.53-2.8,1-4.2,1.51-.09,0-.13.21-.18.3l1.39,1-2.22,1C446.79,144.94,447.68,144.09,448.52,144.06Zm-54.64,47.88c.4-1.19.4-1.19,0-2.19C393.09,191.07,393.09,191.07,393.88,191.94Zm53-41.62-.14-.42-.92.4.09.27Zm-52.17,38.06h.13v-.55h-.13Zm41.18-73.71h-.15v.54H436Zm-48.14,79.79.08-.12-.13,0Zm-2.51,2.06c.05,0,.14-.1.15-.15s-.08-.12-.12-.18-.14.1-.14.16S385.24,196.46,385.27,196.51Z" transform="translate(-27.45 -60.78)"/><path d="M587.56,80.13c1.61-.62,2.11-2.21,3-3.43.6-.79,1.1-1.63,2.46-1.52.15,1.24-.56,2.19-1,3.38l1,1.52.05.05.58,1.21,2.64-.55.78.85-.07-.07-.44,1.84,2.59-1.23.29.25c-.48.8-1,1.59-1.43,2.42a6.79,6.79,0,0,0-.39,1.31l-.06-.06,5.36-1.46-.51,1.25c.65,1,1.23.16,1.89-.19l.13,1.29,2.46-2.09.33,1.52c2.49-1.71,4.35-.13,6.47,1.27A18.61,18.61,0,0,1,610.4,96c-2.6,3.53-5.09,7.14-7.81,10.58-2.17,2.76-3.82,5.82-5.72,8.74s-3.86,5.37-5.71,8.11c-2.18,3.23-4.22,6.56-6.38,9.81-2.8,4.2-5.67,8.36-8.5,12.54a4.16,4.16,0,0,0-.3.73l1.14.93c-1,2-2,4-3.08,5.92-1.15,2.2-2.25,4.43-3.5,6.57-2,3.43-4.16,6.77-6.2,10.18-1.79,3-3.55,6-5.24,9.06-1.88,3.4-3.57,6.92-5.53,10.28-1.66,2.86-3.61,5.55-5.38,8.35-.79,1.26-1.46,2.59-2.18,3.89a5.43,5.43,0,0,1-.6,1.09c-3.09,3.35-5.16,7.56-8.75,10.49-1.41,1.15-2.89,2.21-4.27,3.4s-2.92.88-4.35,1.42a11.3,11.3,0,0,1-2.39.29c-1.48.21-2.87.08-3.81-1.22-.66-.91-1.65-1.45-2.13-2.63-.57-1.4-2.21-2-3.58-2.34a46.1,46.1,0,0,0-5.89-.81l-.94-1.57c.45-2,.89-3.86,1.27-5.73A45.8,45.8,0,0,0,511,192c-.31-5-.63-10.08-1.07-15.1-.18-2-.81-3.9-1-5.88-.45-3.86-1.28-7.65-1.43-11.57-.15-4.2-1.09-8.37-1.41-12.57-.37-4.8-.39-9.62-.65-14.43a34.09,34.09,0,0,0-.91-7.85c-.47-1.61-.17-3.43-.39-5.13-.73-5.59-1.55-11.17-2.32-16.76-.11-.82-.16-1.65-.21-2.47-.17-2.65-.33-5.3-.49-7.95a14.19,14.19,0,0,1,3-10.22c1.2,0,2.44,0,3.68,0a11.76,11.76,0,0,0,7.52-2.9c1.7-1.31,3.47-2.55,5.24-3.78,2-1.41,4.41-1.35,6.73-1.26,1.45.05,2.27,1.14,2.47,2.68.27,2.12.47,4.25.9,6.33.2,1,.15,2.18,1.29,2.84a1.43,1.43,0,0,1,.43,1.13c-.2,3.31,1.14,6.51.42,9.91-.29,1.37.61,3,1,4.73l-.93.44c.18.81.35,1.67.58,2.53.48,1.82,1.06,3.62,1.45,5.46.17.82.24,1.79-.74,2.29a3.06,3.06,0,0,0,.28.8,8.28,8.28,0,0,1,1.22,9,7.38,7.38,0,0,0,0,2.45l1.45-1.91c.11.17.25.29.24.38-.07.49-.18,1-.27,1.46a7.39,7.39,0,0,0-1.26,5.66c1.18-1.9.9-3.88,1.2-5.71.34,2.17.76,4.34,1,6.52.51,4.77,1,9.55,1.36,14.34.18,2.07.19,4.15.3,6.22.06,1.23.17,2.45.27,3.95a18.25,18.25,0,0,0,5.82-8.12c3.78-10.07,4.42-10.59,10.12-19.23,2.59-3.93,4.8-8.11,7.33-12.09,2.3-3.63,4.81-7.13,7.2-10.71,2.81-4.19,5.68-8.34,8.38-12.6,2.53-4,4.86-8.07,7.31-12.1.18-.3.63-.43.95-.64l0,0h.6Zm-61,88.52-.07-.07c-.25,4.2.51,8.37.44,12.63l4.82-9.09c-1.4-1.89-.74-3.87-.81-5.73a38.71,38.71,0,0,1,.57-5.64l2.12-.83.44.89-1.07.8-.13-.18.19.12a2.55,2.55,0,0,0-1.07,2.38,14.8,14.8,0,0,0,1.14,4.66,18.21,18.21,0,0,1,1.36-2.69,7.59,7.59,0,0,0,1.47-6.56,4.13,4.13,0,0,1,.4-3.27c.45,1.27-.34,2.84,1,4l1.3-2.15a9.53,9.53,0,0,1-1-6.11c.17-.85-.22-1.63-1.28-1.58l-.38,4.44h-.47l-.76-15.27-1.05.78-.34-4.33c-.39,2.38-.65,4.75-.88,7.12a4.4,4.4,0,0,0,.12,1,8.87,8.87,0,0,1-.57,4c-.57,1.78-1.25,3.63-.64,5.68a35.66,35.66,0,0,1,.77,5.16l-2-.25-1-19.47-1.63.69a17.05,17.05,0,0,0,0,7.7,10.73,10.73,0,0,0-.65,2.36c-.15,3.18-.2,6.37-.25,9.56,0,.89.17,1.78.21,2.68s0,2,0,3.2l-.83-1C526.3,166,525.62,167.38,526.59,168.65Zm1-36.48-.57.08.75,6.15c1.19-1.92,1.19-1.92-.09-3.68l.83-1.34Zm8,4.14,1.47,2.11-.22-3.84-.12.07-.2,1.65Zm-9.63,23.12h-.23v2.82h.23Zm-1.48,12.37.35-.11-.45-2-.22,0Z" transform="translate(-27.45 -60.78)"/><path d="M341.54,75.14A33.42,33.42,0,0,0,345,72.78a30.35,30.35,0,0,1,14.39-7,46.21,46.21,0,0,0,8.13-1.94c2.26-.86,4.67-1.34,7-2L371.94,61c5.49-.49,10.86-.42,15.59,2.91.82.57,1.64,1.14,2.51,1.64,3.41,2,5.26,5.21,6.94,8.58.44.88.94,1.74,1.42,2.6.16.29.54.59.5.84-.36,2.31,1.57,4,1.7,6.14s.42,4.15.48,6.22c.09,3.07-.06,6.15.08,9.21a6.56,6.56,0,0,1-2.45,5.7c-1.46,1.22-2.84,2.54-4.21,3.86s-2.67,2.68-4.05,4.08c-2.61.19-5.42-1-7.8.73-1.23.23-2.37-.64-3.5.23a1.61,1.61,0,0,1-1.52-.35c-.56-1.25-2-1.12-2.83-2.11l-.21-3.06-1.91.86a12.07,12.07,0,0,1-.17-1.68c.14-3.29.45-6.57.44-9.86a9.56,9.56,0,0,0-2.37-6.42,31.13,31.13,0,0,0-8.8-7.22c-3.14-1.58-6.29-2-9.48-.13-1.63,1-3.3,1.88-4.92,2.85a3,3,0,0,0-1.09,1c-1.47,2.68-3.27,5.17-4,8.27a63.25,63.25,0,0,1-2.43,9.36c-1,2.5-1,5.36-1.42,8.07-.14.9-.25,1.8-.38,2.7-.6,4-1.18,8-1.81,12-.3,1.88-.69,3.75-1.06,5.62-1.19,6-2.41,12-3.58,18.08a11.27,11.27,0,0,0-.12,2.24,94,94,0,0,0,.85,14.17,76.82,76.82,0,0,0,2.27,9.66c1.31,4.43,6.3,7.35,10.92,7a22.64,22.64,0,0,0,3.22-.4,7.9,7.9,0,0,0,4.39-2.65c3.1-3.56,5-7.79,7.16-11.93a9.86,9.86,0,0,0,.81-2.35c1-4.53,2-9.07,2.95-13.61a4.11,4.11,0,0,1,.27-1,22.7,22.7,0,0,1,6.58-8.3c2-1.54,4.22-2.88,6.35-4.3.21-.14.48-.23.61-.42,1.56-2.37,4-3.09,6.59-3.59a4.46,4.46,0,0,0,.67-.2c1.92.28,3.56.61,5.21.75a4.88,4.88,0,0,1,3.88,2.37c.45.68,1,1.27,1.68,2a11.14,11.14,0,0,1-.21,6.44c-1,3.52-1.85,7.07-2.83,10.59a17.93,17.93,0,0,1-2.76,5.82c-1.26,1.74-2.18,3.72-3.28,5.58-.69,1.18-1.2,2.38-2.68,3.08-1.07.51-1.71,2-2.46,3.07a21.29,21.29,0,0,0-1.17,2.18l.07-.07-.58.57.06-.06-.55,1.1.07-.09c-2.07,1.61-4.22,3.14-5.54,5.68l.9.76c-.39.48-.78,1-1.24,1.54a12.47,12.47,0,0,0-1.85,1.89,21.44,21.44,0,0,1-7.64,7.54c-5.64,3.49-11.86,5.58-18,7.85a40.18,40.18,0,0,1-16.94,2.32c-2.47-.18-4.92-.78-7.37-1.2-1.47-.25-2.92-.6-4.39-.76-2-.21-3.12-1.29-3.75-3.33-.82-.21-1.47-1.62-2.82-.67l.06-.08c-2.49-2-3.91-4.64-5.15-7.46a34.62,34.62,0,0,1-3-9.17c-.46-3.42-1.52-6.71-1.44-10.29.11-5,0-9.93.58-14.87.12-1,.26-2,.46-2.95a106.53,106.53,0,0,1,3.32-14,181.73,181.73,0,0,1,8.74-22,106.54,106.54,0,0,0,5.75-13.48c1.7-5,4.34-9.51,6.83-14.08,1.53-2.81,3.95-5.13,5.69-7.85s4.35-4.73,6.17-7.4a9.09,9.09,0,0,1,1.62-1.46l-.08.07.58-.59-.08.09.59-.58Z" transform="translate(-27.45 -60.78)"/><path d="M616.59,104.14l-2.08,3.28c-.37-2,.6-3.33.65-4.93a4.1,4.1,0,0,0,2-3.69c.2-2.81.76-5.58,1.14-8.38a14.37,14.37,0,0,0,0-2,5.72,5.72,0,0,1,0-1.72c.75-2.28,1.59-4.52,2.29-6.47l11.53-4,2-1.58-.06-.07-.35,1.17,3-.25V74l1.85,1.42c3.14-.34,6.33-1.16,9.58-.4,4.85-.86,9.8.25,14.66-.91a60.78,60.78,0,0,1,8.42-1c3.55-.33,7.11-.61,10.56-.9a2.87,2.87,0,0,1,1.87,2.29,13.23,13.23,0,0,1,0,6.65c-.5,1.92-.68,3.92-1.13,5.86a13.83,13.83,0,0,1-1.18,3.25c-.91,1.75-2.25,3.27-2.42,5.4-.05.64-.78,1.22-1.36,2.06l.37,2.26c-.63.87-1.43.58-2.14.52-1-.08-2-.33-3-.38-3.21-.15-6.42-.36-9.63-.3s-6.45.49-9.68.65c-2.74.13-5.48.1-8.23.14-.83,0-1.65,0-2.56,0a40.77,40.77,0,0,0-2.08,7.22c-.65,2.83-1.32,5.66-2,8.48a8.26,8.26,0,0,0-.37,1.7A52.08,52.08,0,0,1,636,132.41a7,7,0,0,0,1.77.24c4.28-.61,8.54-1.34,12.82-1.9a34.88,34.88,0,0,1,5.23-.11,5.89,5.89,0,0,1,1.57.41c.45,1.2.72,2.11,1.11,3,1.51,3.25,2.23,6.55,1.23,10.13-.78,2.79-1,5.74-2.51,8.32a3,3,0,0,0-.05,1.69c.08.73.28,1.45.4,2.05a3.16,3.16,0,0,1-2.62,1.5c-2.37.41-4.72.88-7.09,1.3a14.87,14.87,0,0,1-1.49.11c-4.81.36-9.62.71-14.42,1.1a8.12,8.12,0,0,0-1.48.37c-1,2.82-2.09,5.44-3,8.11-.36,1.12,0,2.35-.53,3.57a20.89,20.89,0,0,0-1.36,5c-.3,1.79-.28,3.64-.51,5.45-.27,2.13-.66,4.25-1,6.65,3.08.22,6.06.94,9.14.61,1.32-.14,2.66-.17,4-.24l12.95-.64c.83,0,1.67,0,2.5-.06,4.72-.48,8.59,4,8.31,9.07a12.28,12.28,0,0,1,0,1.45,11.48,11.48,0,0,1-.72,3.09c-1.14,2.3-2.48,4.5-3.84,6.93h-3.48c1.39,1.89,3.72,1.91,5,3.3,0,1.53-1.34,1.14-2,1.64a8.53,8.53,0,0,1-5.12,1.67c-2.9,0-5.81-.09-8.71,0-4.07.1-8.14.36-12.21.48-2.16.07-4.32-.08-6.47,0a32.92,32.92,0,0,0-4.68.62,67.16,67.16,0,0,1-19.13.87c-1.91-.18-3.82-.28-5.72-.54-1.54-.21-3.06-.61-4.76-1,.35-2.41-1.75-3.71-2-5.58l2.89-9.78-.27-.09,2.49-3.56c1.09-6.14,2.19-12.18,3.24-18.23.62-3.6,1.09-7.23,1.78-10.82.67-3.42,1.52-6.8,2.33-10.19.89-3.71,1.75-7.44,2.76-11.12,1.06-3.84,2.28-7.64,3.44-11.45q2.58-8.45,5.18-16.9a27,27,0,0,1,2.18-5.57l-.67,4,2-1.9a12.45,12.45,0,0,1,1.5-6.35,7.86,7.86,0,0,0,.56-5.06l.09-.12Zm5,5.54-.29.27.23-.33.1-.15Zm-5,66-.48,1.09.34.1.07-1.25.17-.16Zm4.92-68.12.51-.94-.33-.14-.11,1.14-.08.16Zm-5.41,71.6c-.79-.15-1,.31-1,1l-1,1.08.33.2L615,180l1.44.75-.41-1.71.16-.3Zm2.92,5.41.69-2.43c-.78.73-1.32,1.53-.61,2.49l-.47.73.33.13Zm-11.38-4,.09,1.32.29,0,.4-1-.86-.33-.26-1.92-.54,0-.3,2.38Zm4.92-10,.07.07a2.62,2.62,0,0,1-.11-1c.42-1.39.9-2.75,1.4-4.26.62-.17,1.12-.56.45-1.53-1.66.25-2.47-1.72-4.26-1.66v2.65h1c.32,1.94-.63,3.52-1.35,5.28l-.69-.55.85-3.28c-1.07,1-.93,2.16-.78,3.33L607,174a2.29,2.29,0,0,0,3,1.46l1.26-1.92.89,1.9,2.1-3,.7,1.06,2.06-7.47.39.07.25,3a4.84,4.84,0,0,0-1.07,4.65c1.33-1.61.89-3.22,1-4.72.65-1.43,1.61-2.81.89-4.55l-1,.44-.58-.73-1.38,2.13c.3,1.91-.65,3.45-1.41,5.39l-.78-1.41Zm1.47,19a4,4,0,0,0,.54-1c.22-1.25.37-2.51.6-4.1-1.29,1.9-2.2,3.85-4.76,4.5l1.94-4.5.63.29.3-.9L611,183l.9-1.83,1.62.4.86-6.16-.3-.13-1.35,1.82c-.07,1,.94,2.12-.66,3.2v-4.49l-.43,0-.9,2.35-1.87-.68-.26,2.57,1.24-.06.13-1.3a1.32,1.32,0,0,1,.66,1.26c-.45,2.09-.93,4.18-1.51,6.24-.1.37-.69.61-1.05.9l.05.05-1-1.46V182.6l-2.7,2.26-.58,7.22c1,0,1.88.07,2.76,0,1.07-.11,2.12-.4,3.18-.52,1.45-.16,2.8-.37,2.86-2.46l1.4.51-.46.7.29.13Zm14.6-56.84,0-.06.25,1.64,2.78-.64c1.84-2.45,1.41-4.83,1-7.35l1.43,1.1.68-6-.49-.13-1.23,2.51c-.15-1.69-.5-2.77-.3-3.75.56-2.71,1.37-5.38,2-8.07a3.82,3.82,0,0,0-.2-1.32c-1.85.45-1.6,2.37-2.64,3.22-1-.94.89-2.12-.35-2.95l-2.63,2.91-.38-.24,2.34-6.47.77.26c1.1-1.38,1.05-3,1.29-4.75l-7.52-1a3.72,3.72,0,0,0-.3.7,30.13,30.13,0,0,1-1,5.08,23.88,23.88,0,0,0-1.21,5.53,16.2,16.2,0,0,1-.61,3.11c-.72,2.11,0,4.19,0,6.28,0,.17.34.33.42.41l-2.43,6.7.92,1.09a13.69,13.69,0,0,0-2.35,7.12c2.3-.69,4-2,5.88-3,.82-1.17.65-3,2.44-3.49l-.07-.06.22,3.67Zm-7.82,40.7-1,2.9a32.88,32.88,0,0,1,.56-6.14c1-4.92,1.05-4.91.4-5.78-.22,1-.44,1.9-.65,2.83-.48,2.17-1,4.35-1.44,6.53a43.76,43.76,0,0,0-1.23,8.79,10.57,10.57,0,0,1-.75,2.34c-.38,1.42-.76,2.85-1,4.3-.11.62.29,1.12,1.39.86l.46-4.66,1.71-8.12h.3v3.6C620.94,178.48,620.17,175.83,620.78,173.38ZM635,102.22c-1.24,1.1-2.19,2.12-1.33,3.72l1.56-1.31Zm-2.71,7.33c1.26-.87,2.59-1.06,2.07-2.64l-1.25-.23Zm-14.16,80.8c.8-.76.73-1.34,0-2.22Zm4.21-21-.51-.23-.18.8.25.09Zm-1.12,3h.12v-.91h-.12Zm1-67h.15v-.84h-.15Zm-8.92,77.16-.27-.31-.41.64.19.14Zm21.71-66-.39,0,.12.8.22,0Zm-27.69,61,0,.36s.08,0,.08-.07A2.23,2.23,0,0,0,607.32,177.36Zm8.38,5c-.25.07-.13,0,0,0Zm-.22,1.76-.34-.44-.37.35Zm15.37-74.65s-.11,0-.11,0,0,.22.07.33Zm-18.54,77.3-.1.15.17,0Zm2-12.53-.07.13h.12Zm8.13-6.37-.12-.1,0,.17Z" transform="translate(-27.45 -60.78)"/><path d="M254.59,155.1l1.12-2.94-.6-.53,1.08-1.57.24-2.83h-2.1c-1.07-2.88,1.11-4.36,2.62-6l.26,3.54c.75-1.52,1.34-2.59,1.79-3.71.09-.23-.31-.66-.49-1l.06.06a2.14,2.14,0,0,1,.28-.66c.75-.8,1.56-1.54,2.28-2.36s1.31-1.63,2-2.44l-.06-.05-.27,3.93.52.09c2.3-6.19,4.33-12.47,6-18.81l-1.07-1c-.12,0-.21-.05-.28,0l-2.43,1,1.69.37L266,122c-.53,1.74-1.06,3.08-1.34,4.46a36.39,36.39,0,0,0-.35,4.12l-1.64-1.74,1.89-4.29-.79-.93L264,122l-.95-.23.56-3.91-.4-.18-1.86,2.55-.22-.06c1.25-3.86,2.46-7.73,3.76-11.58s2.69-7.66,4.09-11.63l-.91-.81,1.43-1c-.28-.76-5.65-.73-8.25.19a10.15,10.15,0,0,0,1.4,0c.49-.05,1-.28,1.46-.3a17.85,17.85,0,0,1,2,.13c-3.55,1-8.52,1.28-10.91.66l-.43.73c.17.22.26.44.37.45a7.52,7.52,0,0,0,2.46.07,14.82,14.82,0,0,1,7.37.19c-4.52,1.22-21.08,1-24.43-.43l2.13-.35-.51-.66.73-.93c-.63-1.71-2.57-.77-3.75-1.88,1.58-1.34,3.38-1.19,5.11-1.3l1.49-.09.06-.6-5-1.2,3.72-1,1.59-2-1.28-.46,2.25-4.78-.06.06.86-.22.75-1.2L247.4,80l1.1-1.82a68.77,68.77,0,0,1,15.38-.72c-1.6.31-3.19.7-4.81.91a44.69,44.69,0,0,0-5,.66l6,1.19v.22h-6.28l.07-.64c-.93-1.27-2-.54-3-.25l-1.23,1.9,17-.64.59,2.28c3.11-.08,6.65.69,9.87-1.12a17.66,17.66,0,0,0,1.47-2.59c.3-.83-.26-1.79.41-2.7l-3.06-1.83c.9-1.07,2.73-.17,3.6-1.63l-1.87-1.43A28.54,28.54,0,0,1,281,70.69a101.39,101.39,0,0,1,20-2.25c4.9,0,9.79-.51,14.7-.72a23.3,23.3,0,0,1,3,.34c2.54.22,5.09.4,7.63.63a7,7,0,0,1,1.29.39l-.18,1.15L325.25,69l-.9,2,2.24.24c0,.11.14.26.1.34-.26.57-.88,1.09-.09,1.85l2.79-.33c-.48,1.61-.48,1.61-2.86,1.6L326,76.22l1.83,1.08-3.94.76,2.46,1.31-1.89,1.49,1.8.47c-.57,1.4-3.13,1.78-2.3,4-1.62.32-3.09,2.16-5.28,1.06,1.12,1,2.38.41,3.82.79l.21,2c-.89,1-2.42.48-2.68,1.88-.5-.16-1-.35-1.51-.47-.19,0-.42.1-.65.17l.92,1.33,1.31-1,2.35-.46,1.63.77c-.08.24-.08.52-.23.68a9.05,9.05,0,0,1-1.6,1.57,4.69,4.69,0,0,1-2.21.93,14.55,14.55,0,0,0-5,1.15,17.4,17.4,0,0,1-4.89.8c-4.39.35-8.8.6-12.89.87l-2.51,2.84,1.16.72-.72,1.53c-.32-.22-.6-.56-.9-.57a2.77,2.77,0,0,0-1,.3c-.73,2-1.53,3.84-2,5.74a6.29,6.29,0,0,0,.29,2.89c-1,2.66-2,5.36-1.42,8.34-.9,1.79.09,3.92-1,5.68a1.29,1.29,0,0,0-.13.73c.34,5-1.24,9.65-2.35,14.4-1.21,5.17-2.41,10.34-4.09,15.39-1.29,3.87-2.48,7.77-3.91,11.58a43.87,43.87,0,0,0-2.51,11.41,46.16,46.16,0,0,1-2.54,11.92c-1,2.72-1.65,5.58-2.55,8.35-1.82,5.61-3.29,11.37-6.47,16.42a28.36,28.36,0,0,1-4,4.72,6.19,6.19,0,0,1-4,1.72c-2.79.23-5.56.75-8.34,1.11a19,19,0,0,1-2.31,0c-.74-.93-1.43-2.06-3.53-1.61l-.78,1-.22-2.27-1,.2a5.11,5.11,0,0,1,.06-3.46c.36-.93-.25-2.24-.4-3.24l-2-1.78a3.34,3.34,0,0,1,2.87-3.08c.2-1.63.37-3.4,2.51-3.44a17.24,17.24,0,0,0,2.18-7.82c.23-2.37,1.19-4.43,1.88-6.62a29.82,29.82,0,0,0,1.16-4.54c.35-2.35.49-4.73.73-7.22l1.65-1.33c-1.54-1.18-.57-2.58-.35-3.82a36.48,36.48,0,0,1,1.25-4.2L250,168l.08.06c.24-2.59.64-3.09,3.4-5.13a9.48,9.48,0,0,0,1.63-2.12c-.59-1.85-.39-3.25,1.11-6.6-1.05-.77-1.07.64-1.67.79Zm21-71.14c-1.25-.08-2.57-.56-3.45-.13-1.67.81-3.4.54-5.09.87l1,1.37-2,1.42,1.35.85c-2,1.34-4.25.48-6.5,1.09a1.51,1.51,0,0,0,2,.43,4.07,4.07,0,0,1,1.61-.14,5,5,0,0,1,.09.68l3.59.36-.4.65,4,.87-.22-1.56c1.21-.83,1-2.21.84-3.55l-1.85-1.09,4.93-.84Zm42.6-14.16c1.49,1.27,3.29,1.54,4.27,1,.24-.13.28-.62.54-1.26ZM265,86.42c-1.18.5-2.27-.06-3.05,1,.81.94,1.66.7,2.51.52Zm0,24.21c1.24-1.57,1.24-1.57,1.18-3.08Zm7.08-2.52-.48-.1.15.8Zm-8.39-23.22s0-.1-.05-.1l-.35.06Zm-4.37,5.39s0,.1.05.1l.34-.06Zm-14.65,3.54-.82-.05v.1Zm23.17,9.78,0-.23s-.13,0-.13.07a1,1,0,0,0,0,.23Zm.92,11.87.1-.17-.17,0Z" transform="translate(-27.45 -60.78)"/><path d="M263.46,74.25l-.3,1.18c-11.17,1.75-13.73,1.94-17.55,1.32.45-1.52,1.88-1.79,3-2.14a31.38,31.38,0,0,1,6.32-1.37c6.2-.58,12.43-1,18.64-1.43a5.25,5.25,0,0,1,1.42.4c-1.82,1.61-3.88,1.26-5.74,1.52S265.44,74.08,263.46,74.25Z" transform="translate(-27.45 -60.78)"/><path d="M110.57,198.12,109,198l0,.05c1.29-1,2.56-2.09,3.87-3.09a3.53,3.53,0,0,1,1.14-.35l-.06-.06-.65,1.43,1.24.65-.07-.06L110,199l.07.07.43-1,.25-.3Zm1.22-.68.09-.11-.14,0Z" transform="translate(-27.45 -60.78)"/><path d="M265.14,75.4c1.56-1.34,3.09-.53,4.5-.71l-2.5,1.43Z" transform="translate(-27.45 -60.78)"/><path d="M241.79,199.27c-.11-1.51.7-2,2.12-2.07C243.77,198.59,242.49,198.69,241.79,199.27Z" transform="translate(-27.45 -60.78)"/><path d="M380.53,178.12l.95-.09.13.11c-.33,1.12-.72,2.19-2.08,2.42l0,0,0-1-.07.09.55-1.1-.06.06.58-.57Z" transform="translate(-27.45 -60.78)"/><path d="M69.44,209.53c-.7,1-1.31.95-2,.41A1.91,1.91,0,0,1,69.44,209.53Z" transform="translate(-27.45 -60.78)"/><path d="M71.48,208.65l1.84.49-1.1,1.42-.68-2Z" transform="translate(-27.45 -60.78)"/><path d="M243.06,194.58l1.13-2.11c.25,1.52.25,1.52-1.19,2Z" transform="translate(-27.45 -60.78)"/><path d="M243.95,79.72c-.32-1.39.67-1.08,1.34-1.26Z" transform="translate(-27.45 -60.78)"/><path d="M242.41,88.35l-2.65.67C240.73,88.13,240.73,88.13,242.41,88.35Z" transform="translate(-27.45 -60.78)"/><path d="M263.91,106.49l.7-1.73.4.14-.62,1.87Z" transform="translate(-27.45 -60.78)"/><path d="M428.13,120.66c0-.68-1-1.32-.08-2l-.06-.06,1,.81-.92,1.22Z" transform="translate(-27.45 -60.78)"/><path d="M172,118.57l1,.82-.93,1.2.08.06c0-.68-1-1.32-.08-2Z" transform="translate(-27.45 -60.78)"/><path d="M634.09,74.66l.67-1.22,1,1.54L634,74.59Z" transform="translate(-27.45 -60.78)"/><path d="M277.25,72.5l-1.3.19-.1-.39,1.31-.38Z" transform="translate(-27.45 -60.78)"/><path d="M75.52,207.42l-.64,1-.32-.16.52-1.12Z" transform="translate(-27.45 -60.78)"/><path d="M597.08,81.62l1-1.53L598,80a1.26,1.26,0,0,1-1,1.52Z" transform="translate(-27.45 -60.78)"/><path d="M131.63,185.25l.57-.85.21.11-.48.92Z" transform="translate(-27.45 -60.78)"/><path d="M388.39,184.64l-.53.81-.24-.16.54-.87Z" transform="translate(-27.45 -60.78)"/><path d="M340.6,76.08l-1-.42,1.45-.53-.05-.06,0,.57.08-.09-.58.59Z" transform="translate(-27.45 -60.78)"/><path d="M293.11,109.58l-.16,1.09h-.26l-.07-1.13Z" transform="translate(-27.45 -60.78)"/><path d="M267.22,76.94l-1.34.07,0-.32,1.34-.08Z" transform="translate(-27.45 -60.78)"/><path d="M263.11,134.65l.08-1.23.35.11L263,134.6Z" transform="translate(-27.45 -60.78)"/><path d="M293.32,108.42v-.68l.64.3Z" transform="translate(-27.45 -60.78)"/><path d="M273.9,82.62l-1-.09,0-.25,1-.2Z" transform="translate(-27.45 -60.78)"/><path d="M241.83,87.25h1.07v.24h-1.07Z" transform="translate(-27.45 -60.78)"/><path d="M235.86,208.78v.6h-.19l0-.6Z" transform="translate(-27.45 -60.78)"/><path d="M587.06,80.12l.22-.73.28.74.06-.06H587Z" transform="translate(-27.45 -60.78)"/><path d="M255.22,139.85l.06-.5s.14.11.13.14A2.31,2.31,0,0,1,255.22,139.85Z" transform="translate(-27.45 -60.78)"/><path d="M326.67,82.24l.58,0v.15h-.58Z" transform="translate(-27.45 -60.78)"/><path d="M196.28,202.85a2.3,2.3,0,0,1,0-.31s.05,0,.08-.07Z" transform="translate(-27.45 -60.78)"/><path d="M452.3,202.84l0-.37s.08,0,.08.07A2.2,2.2,0,0,1,452.3,202.84Z" transform="translate(-27.45 -60.78)"/><path d="M382,177l-.37,1.1-.13-.11.57-.92Z" transform="translate(-27.45 -60.78)"/><path d="M237.84,214.83c0-.27,0-.14,0,0C237.8,214.7,237.77,214.57,237.84,214.83Z" transform="translate(-27.45 -60.78)"/><path d="M131.35,186.43l-.07.36Z" transform="translate(-27.45 -60.78)"/><path d="M387.27,186.77l.06-.36Z" transform="translate(-27.45 -60.78)"/><path d="M250,168v.92l-.31-.09.38-.76Z" transform="translate(-27.45 -60.78)"/><path d="M258.83,125.68s-.11-.05-.11-.08a1,1,0,0,1,.05-.22s.12.05.11.08A.94.94,0,0,1,258.83,125.68Z" transform="translate(-27.45 -60.78)"/><path d="M166,128l0,.23.11-.17Z" transform="translate(-27.45 -60.78)"/><path d="M422,128l0,.23.11-.17Z" transform="translate(-27.45 -60.78)"/><path d="M429,117.08l-.46,1,.05.06.47-1Z" transform="translate(-27.45 -60.78)"/><path d="M263,110.09l0,.2.08-.15Z" transform="translate(-27.45 -60.78)"/><path d="M172.59,118.09l.49-.95-.06-.06-.48,1Z" transform="translate(-27.45 -60.78)"/><path d="M433.54,110.11l-.49.45.06.06.46-.47Z" transform="translate(-27.45 -60.78)"/><path d="M177,110.57l-.12.19.2-.13Z" transform="translate(-27.45 -60.78)"/><path d="M433,110.56l-.15.19.21-.13Z" transform="translate(-27.45 -60.78)"/><path d="M177.54,110.11l-.53.46.07.07.49-.48Z" transform="translate(-27.45 -60.78)"/><polygon points="143.66 55.84 143.72 55.7 143.6 55.77 143.66 55.84"/><path d="M432.53,103.55l-.09.21.15-.15Z" transform="translate(-27.45 -60.78)"/><polygon points="399.66 55.84 399.72 55.7 399.6 55.77 399.66 55.84"/><path d="M171,116.55l-.55.52.06.06.55-.52Z" transform="translate(-27.45 -60.78)"/><path d="M173.08,117.15l.08-.2-.14.14Z" transform="translate(-27.45 -60.78)"/><path d="M110,199l-.15.23.22-.16Z" transform="translate(-27.45 -60.78)"/><path d="M103.55,199.57l-.11.14.17-.08Z" transform="translate(-27.45 -60.78)"/><path d="M101.93,200.82l-.08.14-.23-.15c.05,0,.11-.13.16-.13S101.88,200.77,101.93,200.82Z" transform="translate(-27.45 -60.78)"/><path d="M311,201.18l.27.06-.21-.14Z" transform="translate(-27.45 -60.78)"/><polygon points="235.61 49.36 235.69 49.23 235.55 49.31 235.61 49.36"/><path d="M177.57,110.16l.11-.1-.14.05Z" transform="translate(-27.45 -60.78)"/><path d="M294,106.78l-.09.16-.25-.17.17-.16Z" transform="translate(-27.45 -60.78)"/><path d="M434.51,105l0,.23.11-.17Z" transform="translate(-27.45 -60.78)"/><path d="M238.47,217.36c-.05,0-.11.11-.16.11s-.09-.09-.14-.14.11-.11.16-.11S238.42,217.31,238.47,217.36Z" transform="translate(-27.45 -60.78)"/><path d="M178.51,105l0,.23.11-.17Z" transform="translate(-27.45 -60.78)"/><path d="M114.07,194.63l.1-.21-.16.15Z" transform="translate(-27.45 -60.78)"/><path d="M433.57,110.16l.11-.1-.14.05Z" transform="translate(-27.45 -60.78)"/><polygon points="89.3 134.16 89.23 134.01 89.41 134.03 89.3 134.16"/><path d="M243,194.53l-.06.22.13-.17Z" transform="translate(-27.45 -60.78)"/><path d="M114.61,196.66l.05-.13-.12.07Z" transform="translate(-27.45 -60.78)"/><polygon points="213.85 25.66 213.78 25.53 213.95 25.55 213.85 25.66"/><polygon points="81.58 137.24 81.51 137.41 81.61 137.29 81.58 137.24"/><path d="M141,165.06l-.1.17.15-.13Z" transform="translate(-27.45 -60.78)"/><path d="M247.08,81.6l-.06.06Z" transform="translate(-27.45 -60.78)"/><path d="M434.5,96l-.07.21.13-.16Z" transform="translate(-27.45 -60.78)"/><path d="M254.53,155l-.07.18.14-.12Z" transform="translate(-27.45 -60.78)"/><path d="M598.48,79.56,598,80l.06.06.51-.47Z" transform="translate(-27.45 -60.78)"/><path d="M258.52,140.05l-.11.2.17-.15Z" transform="translate(-27.45 -60.78)"/><path d="M593,80.06l.23-.35-.18.4Z" transform="translate(-27.45 -60.78)"/><path d="M598.55,79.62l-.06-.06Z" transform="translate(-27.45 -60.78)"/><path d="M427,116.55l-.55.52.06.06.55-.52Z" transform="translate(-27.45 -60.78)"/><path d="M379.52,180.56l-.13.38.18-.34Z" transform="translate(-27.45 -60.78)"/><path d="M429.08,117.15l.08-.2-.14.14Z" transform="translate(-27.45 -60.78)"/><path d="M176.53,103.55l-.09.21.15-.15Z" transform="translate(-27.45 -60.78)"/><path d="M172.54,118l-.56.53.06.05.56-.53Z" transform="translate(-27.45 -60.78)"/><path d="M428,118.63l.56-.53-.05-.06-.56.53Z" transform="translate(-27.45 -60.78)"/><path d="M382,177.11l.17-.15L382,177Z" transform="translate(-27.45 -60.78)"/><path d="M341.08,75.13h.46l.06-.07H341Z" transform="translate(-27.45 -60.78)"/><path d="M397,165.06l-.1.17.15-.13Z" transform="translate(-27.45 -60.78)"/><path d="M178.5,96l-.07.21.13-.16Z" transform="translate(-27.45 -60.78)"/><polygon points="212.3 33.65 212.24 33.51 212.4 33.53 212.3 33.65"/><path d="M192.52,144.06a2.2,2.2,0,0,1,2.11-.75l-1.14,1.38-1-.72Z" transform="translate(-27.45 -60.78)"/><path d="M200.39,137.93l-.8.13,0-.24.8-.16Z" transform="translate(-27.45 -60.78)"/><path d="M197.57,138.63l.12-.08-.16,0Z" transform="translate(-27.45 -60.78)"/><path d="M448.52,144.06a2.19,2.19,0,0,1,2.11-.75l-1.14,1.38-1-.72Z" transform="translate(-27.45 -60.78)"/><path d="M456.39,137.93l-.8.13,0-.24.8-.16Z" transform="translate(-27.45 -60.78)"/><path d="M453.57,138.63l.12-.08-.16,0Z" transform="translate(-27.45 -60.78)"/><path d="M533.19,150.32l-.63,2.06C532.38,151.72,532,151,533.19,150.32Z" transform="translate(-27.45 -60.78)"/><path d="M529.38,170.37v.86h-.14v-.86Z" transform="translate(-27.45 -60.78)"/><path d="M532.44,153.47l-.06.54-.16,0c0-.18,0-.36,0-.53Z" transform="translate(-27.45 -60.78)"/><polygon points="501.43 103.08 501.33 103.14 501.35 103 501.43 103.08"/><polygon points="504.29 99.06 504.39 99 504.37 99.15 504.29 99.06"/><polygon points="500.26 114.54 500.44 114.48 500.42 114.64 500.26 114.54"/><polygon points="505.85 105.7 505.8 105.52 505.93 105.53 505.85 105.7"/><path d="M526.59,168.65l.12-.37-.19.31Z" transform="translate(-27.45 -60.78)"/><polygon points="502.9 108.44 502.95 108.61 502.81 108.59 502.9 108.44"/><path d="M629.5,121.55l.34,4.29.57-.45.54,1,1.34-1.72c.26,2.48-3,2.73-2.69,5.24l-.72-.5L627,131.08l.07.06c.41-2,.75-4.05,1.24-6a35.46,35.46,0,0,1,1.23-3.49Z" transform="translate(-27.45 -60.78)"/><path d="M626.54,118.57c.91,1.27-.29,2-.4,3,.79,1.57.06,3-.74,4.55-1.82-1.17-.68-2.73-.51-4S625.88,119.91,626.54,118.57Z" transform="translate(-27.45 -60.78)"/><path d="M630.08,120.61c-.43-1.28.7-1.88,1.4-2.76a11.32,11.32,0,0,0,0,1.51,9.62,9.62,0,0,0,.39,1.38l-1.05,1.15-.8-1.32Z" transform="translate(-27.45 -60.78)"/><path d="M625.11,127l-.43,1.12-.43-.17.41-1.17Z" transform="translate(-27.45 -60.78)"/><path d="M620.19,134.8l.13-.8a1.35,1.35,0,0,1,.12.41,1.38,1.38,0,0,1-.14.41Z" transform="translate(-27.45 -60.78)"/><path d="M630,120.57l-.53,1,.06.05.52-1Z" transform="translate(-27.45 -60.78)"/><polygon points="600.26 47.57 600.39 47.52 600.37 47.66 600.26 47.57"/><polygon points="596.25 71.56 596.38 71.5 596.36 71.66 596.25 71.56"/><polygon points="601.15 71.9 601.2 71.7 601.1 71.84 601.15 71.9"/><path d="M608,187.08l-.7,1.61c-.35-1.11,0-1.47.75-1.56Z" transform="translate(-27.45 -60.78)"/><path d="M612.53,170.57V173l-.93.11c-.07-.16-.22-.34-.18-.43.33-.71-.25-2,1.18-2Z" transform="translate(-27.45 -60.78)"/><path d="M271.59,88.92l-1.16-.08,1.12-.11Z" transform="translate(-27.45 -60.78)"/></svg>